<?xml version="1.0" encoding="UTF-8" standalone="no"?>
<svg xmlns:dc="http://purl.org/dc/elements/1.1/" 
   xmlns:cc="http://creativecommons.org/ns#" 
   xmlns:rdf="http://www.w3.org/1999/02/22-rdf-syntax-ns#" 
   xmlns:svg="http://www.w3.org/2000/svg" 
   xmlns="http://www.w3.org/2000/svg" id="svg4693" version="1.1" viewBox="0 0 7.9762335 7.9766574" height="7.9766574mm" width="7.9762335mm">
   <style>svg { cursor: pointer }</style>
   <defs id="defs4687" />
   <metadata id="metadata4690">
      <rdf:RDF>
         <cc:Work rdf:about="">
            <dc:format>image/svg+xml</dc:format>
            <dc:type rdf:resource="http://purl.org/dc/dcmitype/StillImage" />
            <dc:title></dc:title>
         </cc:Work>
      </rdf:RDF>
   </metadata>
   <g transform="translate(179.36958,77.315709)" id="layer1">
      <path d="m -175.38095,-74.999548 c -0.92208,0 -1.67217,0.750094 -1.67217,1.672167 0,0.922073 0.75009,1.672167 1.67217,1.672167 0.92207,0 1.67216,-0.750094 1.67216,-1.672167 0,-0.922073 -0.75009,-1.672167 -1.67216,-1.672167 z m 0,3.521869 c -1.01997,0 -1.8497,-0.829733 -1.8497,-1.849702 0,-1.019969 0.82973,-1.849967 1.8497,-1.849967 1.01997,0 1.8497,0.829998 1.8497,1.849967 0,1.019969 -0.82973,1.849702 -1.8497,1.849702 z m -2.15715,0.472546 c 0.0728,0 0.14393,0.0254 0.20029,0.0717 0.12012,0.09842 0.24844,0.188119 0.38153,0.266964 0.13811,0.08176 0.19288,0.254 0.12806,0.400844 l -0.13626,0.307975 c -0.0188,0.04207 2.6e-4,0.09181 0.0426,0.110331 0.48657,0.216165 1.00516,0.325438 1.54094,0.325438 0.0463,0 0.0839,-0.03757 0.0839,-0.08361 v -0.336286 c 0,-0.160866 0.12012,-0.296068 0.27967,-0.314589 0.17224,-0.02011 0.34369,-0.0553 0.50932,-0.103981 0.0291,-0.0085 0.0593,-0.01296 0.0894,-0.01296 0.127,0 0.2413,0.07541 0.2913,0.192087 l 0.1323,0.309827 c 0.009,0.02064 0.0251,0.03651 0.0458,0.04498 0.0206,0.0079 0.0439,0.0079 0.0643,-7.94e-4 0.46117,-0.197643 0.87366,-0.480482 1.22608,-0.841109 0.0156,-0.01587 0.0241,-0.03731 0.0238,-0.05953 -2.6e-4,-0.02196 -0.01,-0.04339 -0.0254,-0.059 l -0.2405,-0.23495 c -0.11483,-0.112183 -0.12753,-0.292894 -0.0294,-0.419894 0.0945,-0.122766 0.18071,-0.253735 0.25559,-0.389202 0.0558,-0.100806 0.16192,-0.163248 0.27675,-0.163248 0.0413,0 0.0818,0.0079 0.12012,0.02355 l 0.31168,0.127265 c 0.0103,0.0042 0.0209,0.0061 0.0317,0.0061 0.0341,0 0.0646,-0.02037 0.0775,-0.05212 0.1868,-0.456935 0.28126,-0.940858 0.28126,-1.43801 0,-0.0463 -0.0373,-0.08361 -0.0836,-0.08361 h -0.33629 c -0.1606,0 -0.29607,-0.12065 -0.31459,-0.279929 -0.0167,-0.142087 -0.0434,-0.284168 -0.0796,-0.422016 -0.0407,-0.155046 0.0413,-0.316177 0.19077,-0.374914 l 0.31353,-0.123296 c 0.0204,-0.0082 0.0373,-0.02434 0.046,-0.04445 0.009,-0.02064 0.009,-0.04339 0.001,-0.06403 -0.18335,-0.46699 -0.45402,-0.887413 -0.80459,-1.250421 -0.0159,-0.01667 -0.0373,-0.02567 -0.0603,-0.02567 -0.0217,0 -0.0423,0.0085 -0.0579,0.02355 l -0.2421,0.233627 c -0.0593,0.05715 -0.13758,0.0889 -0.22013,0.0889 -0.073,0 -0.1442,-0.0254 -0.20055,-0.0717 -0.11986,-0.09842 -0.24818,-0.188119 -0.38153,-0.267229 -0.13785,-0.08149 -0.19288,-0.253736 -0.1278,-0.400579 l 0.13626,-0.307975 c 0.0188,-0.04233 -5.3e-4,-0.09181 -0.0426,-0.110596 -0.48657,-0.2159 -1.00516,-0.325173 -1.5412,-0.325173 -0.046,0 -0.0836,0.03757 -0.0836,0.08387 v 0.336021 c 0,0.160866 -0.12039,0.296068 -0.27993,0.314589 -0.17198,0.02011 -0.34343,0.05503 -0.50906,0.103982 -0.0294,0.0085 -0.0593,0.01296 -0.0897,0.01296 -0.127,0 -0.2413,-0.07541 -0.29104,-0.192088 l -0.13256,-0.309827 c -0.009,-0.02037 -0.0254,-0.03651 -0.0458,-0.04472 -0.0206,-0.0085 -0.0437,-0.0079 -0.064,7.94e-4 -0.46144,0.197114 -0.87366,0.479954 -1.22608,0.840846 -0.0156,0.01561 -0.0241,0.03757 -0.0238,0.05953 2.6e-4,0.02223 0.009,0.04313 0.0251,0.059 l 0.24051,0.234685 c 0.11509,0.112448 0.12779,0.293158 0.0296,0.420158 -0.0947,0.122767 -0.18071,0.253736 -0.25559,0.389202 -0.0558,0.100807 -0.16192,0.163248 -0.27702,0.163248 -0.0413,0 -0.0817,-0.0079 -0.11985,-0.02355 l -0.31168,-0.127264 c -0.0103,-0.0042 -0.0212,-0.0063 -0.0317,-0.0063 -0.0344,0 -0.0646,0.02064 -0.0775,0.05212 -0.1868,0.4572 -0.28152,0.941123 -0.28152,1.438275 0,0.04604 0.0376,0.08387 0.0836,0.08387 h 0.33628 c 0.16087,0 0.29607,0.120121 0.31486,0.279665 0.0164,0.142081 0.0434,0.283898 0.0796,0.42201 0.0405,0.155046 -0.0415,0.316177 -0.19077,0.374915 l -0.31353,0.123295 c -0.0209,0.0082 -0.0373,0.02408 -0.046,0.04445 -0.009,0.02037 -0.01,0.04339 -0.001,0.06403 0.18362,0.466725 0.45429,0.887413 0.8046,1.250421 0.0161,0.01667 0.0373,0.02567 0.0603,0.02567 0.0217,0 0.0426,-0.0085 0.0582,-0.02355 l 0.24183,-0.233627 c 0.0595,-0.05715 0.13758,-0.0889 0.2204,-0.0889 z m 2.15715,1.66079 c -0.56092,0 -1.10358,-0.1143 -1.6129,-0.340519 -0.13177,-0.05847 -0.19156,-0.21299 -0.13335,-0.344752 l 0.13652,-0.307975 c 0.0286,-0.06456 0.005,-0.139965 -0.0561,-0.175948 -0.14076,-0.08334 -0.27649,-0.178329 -0.40349,-0.282575 -0.0251,-0.02037 -0.0556,-0.03122 -0.0878,-0.03122 -0.0365,0 -0.0709,0.01376 -0.0968,0.03889 l -0.24209,0.233627 c -0.049,0.04736 -0.11351,0.07329 -0.18151,0.07329 -0.0714,0 -0.13811,-0.02831 -0.18811,-0.07964 -0.36672,-0.379942 -0.64982,-0.820209 -0.84191,-1.308894 -0.0257,-0.06482 -0.0243,-0.135996 0.003,-0.200025 0.028,-0.06403 0.0791,-0.113242 0.14393,-0.138906 l 0.31354,-0.123031 c 0.0656,-0.02593 0.1016,-0.09684 0.0839,-0.164836 -0.0381,-0.14605 -0.0667,-0.296333 -0.0841,-0.446352 -0.008,-0.07012 -0.0675,-0.122767 -0.13838,-0.122767 h -0.33628 c -0.14394,0 -0.26141,-0.11721 -0.26141,-0.261408 0,-0.520171 0.0992,-1.026583 0.29475,-1.505215 0.0405,-0.09895 0.1352,-0.162718 0.24209,-0.162718 0.0339,0 0.0669,0.0066 0.0987,0.01958 l 0.31168,0.127264 c 0.0169,0.0069 0.0349,0.01032 0.0529,0.01032 0.0505,0 0.0971,-0.02725 0.12145,-0.0717 0.0794,-0.143139 0.17039,-0.281781 0.2704,-0.411692 0.0431,-0.05583 0.0376,-0.135202 -0.013,-0.184414 l -0.24051,-0.23495 c -0.05,-0.04868 -0.0778,-0.114036 -0.0786,-0.183886 -7.9e-4,-0.06985 0.0254,-0.135731 0.0744,-0.185737 0.36856,-0.37756 0.80036,-0.673629 1.28323,-0.880004 0.0635,-0.02725 0.13599,-0.02831 0.20002,-0.0024 0.0648,0.02593 0.11563,0.07567 0.14314,0.139964 l 0.13229,0.309563 c 0.0217,0.05106 0.072,0.0844 0.1278,0.0844 0.0132,0 0.0267,-0.0021 0.0394,-0.0058 0.17542,-0.05159 0.35666,-0.08863 0.53869,-0.109802 0.0701,-0.0082 0.12303,-0.06773 0.12303,-0.138377 v -0.336021 c 0,-0.144198 0.11721,-0.261408 0.26115,-0.261408 0.56091,0 1.10357,0.114564 1.61316,0.340518 0.1315,0.05821 0.1913,0.21299 0.13282,0.344488 l -0.13626,0.307975 c -0.0286,0.06456 -0.005,0.140229 0.0564,0.176212 0.14076,0.08334 0.27649,0.178594 0.40349,0.282575 0.0249,0.02037 0.0553,0.03122 0.0878,0.03122 0.0363,0 0.0706,-0.01376 0.0968,-0.03889 l 0.24183,-0.233627 c 0.0489,-0.04736 0.1135,-0.07329 0.1815,-0.07329 0.0717,0 0.13838,0.02831 0.18812,0.07964 0.36671,0.379942 0.65008,0.820209 0.84217,1.308894 0.0257,0.06482 0.0243,0.135996 -0.004,0.200025 -0.0278,0.06403 -0.0791,0.113506 -0.14394,0.138906 l -0.31353,0.123032 c -0.0656,0.02593 -0.1016,0.09684 -0.0839,0.164835 0.0384,0.145785 0.0667,0.296069 0.0841,0.446352 0.008,0.07011 0.0677,0.122767 0.13838,0.122767 h 0.33629 c 0.14419,0 0.26141,0.11721 0.26141,0.261408 0,0.520171 -0.0992,1.026848 -0.29475,1.505215 -0.0402,0.09869 -0.1352,0.162718 -0.24183,0.162718 -0.0339,0 -0.0672,-0.0066 -0.0987,-0.01958 l -0.31194,-0.127264 c -0.0169,-0.0069 -0.0347,-0.01032 -0.0529,-0.01032 -0.0503,0 -0.0968,0.02752 -0.12144,0.0717 -0.0794,0.143404 -0.17013,0.282046 -0.27041,0.411691 -0.0431,0.05583 -0.0373,0.135203 0.0132,0.184415 l 0.24051,0.23495 c 0.0492,0.04815 0.0778,0.115358 0.0786,0.183885 7.9e-4,0.06985 -0.0257,0.135732 -0.0744,0.185738 -0.36883,0.377561 -0.80036,0.673629 -1.28323,0.880269 -0.0635,0.02699 -0.13599,0.02805 -0.20002,0.0021 -0.0648,-0.02593 -0.11563,-0.07541 -0.14314,-0.1397 l -0.13229,-0.309831 c -0.022,-0.05106 -0.0722,-0.0844 -0.12806,-0.0844 -0.0132,0 -0.0265,0.0021 -0.0394,0.0058 -0.17515,0.05159 -0.35639,0.08863 -0.53869,0.109803 -0.0699,0.0082 -0.12276,0.06773 -0.12276,0.138377 v 0.336285 c 0,0.143933 -0.11721,0.261144 -0.26141,0.261145 z" style="clip-rule:evenodd;fill:#ffffff;fill-rule:nonzero;stroke:#000000;stroke-width:0.0105833px;stroke-linejoin:round;stroke-miterlimit:1.41421" id="path398" />
   </g>
</svg>
