<?xml version="1.0" encoding="UTF-8" standalone="no"?>
<svg xmlns:dc="http://purl.org/dc/elements/1.1/" 
   xmlns:cc="http://creativecommons.org/ns#" 
   xmlns:rdf="http://www.w3.org/1999/02/22-rdf-syntax-ns#" 
   xmlns:svg="http://www.w3.org/2000/svg" 
   xmlns="http://www.w3.org/2000/svg" id="svg5721" version="1.1" viewBox="0 0 4.2333331 4.2333331" height="4.2333331mm" width="4.2333331mm">
   <style>svg { cursor: pointer }</style>
   <defs id="defs5715" />
   <metadata id="metadata5718">
      <rdf:RDF>
         <cc:Work rdf:about="">
            <dc:format>image/svg+xml</dc:format>
            <dc:type rdf:resource="http://purl.org/dc/dcmitype/StillImage" />
            <dc:title></dc:title>
         </cc:Work>
      </rdf:RDF>
   </metadata>
   <g transform="translate(42.938095,83.003571)" id="layer1">
      <path d="m -40.821429,-83.003571 c -1.1684,0 -2.116666,0.948266 -2.116666,2.116666 0,1.1684 0.948266,2.116667 2.116666,2.116667 1.1684,0 2.116667,-0.948267 2.116667,-2.116667 0,-1.1684 -0.948267,-2.116666 -2.116667,-2.116666 z m 0,0.635 c 0.351367,0 0.635,0.283633 0.635,0.635 0,0.351366 -0.283633,0.635 -0.635,0.635 -0.351366,0 -0.635,-0.283634 -0.635,-0.635 0,-0.351367 0.283634,-0.635 0.635,-0.635 z m 0,3.005666 c -0.529166,0 -0.99695,-0.270933 -1.27,-0.681566 0.0063,-0.421217 0.846667,-0.651934 1.27,-0.651934 0.421217,0 1.26365,0.230717 1.27,0.651934 -0.27305,0.410633 -0.740833,0.681566 -1.27,0.681566 z" style="clip-rule:evenodd;fill:#ffffff;fill-rule:nonzero;stroke-width:0.264583;stroke-linejoin:round;stroke-miterlimit:1.41421" id="path60" />
   </g>
</svg>
